<svg id="visual" viewBox="0 0 900 600" width="900" height="600" xmlns="http://www.w3.org/2000/svg" xmlns:xlink="http://www.w3.org/1999/xlink" version="1.1"><g transform="translate(440.464687469477 287.98897696221434)"><path d="M143.5 -166.7C190.6 -131.5 236.6 -90.7 251.9 -39.2C267.2 12.3 251.8 74.4 221.3 128.3C190.8 182.2 145.2 227.8 89.1 250.8C33.1 273.8 -33.4 274.1 -91.7 252.6C-150 231.1 -200.1 187.8 -222.7 135.1C-245.3 82.5 -240.3 20.5 -230.8 -41.9C-221.2 -104.3 -207 -167 -167.8 -203.6C-128.6 -240.2 -64.3 -250.6 -8 -241C48.2 -231.5 96.4 -201.9 143.5 -166.7" fill="#073944"></path></g></svg>