
        <svg xmlns="http://www.w3.org/2000/svg" xmlns:xlink="http://www.w3.org/1999/xlink" version="1.1" width="3192" height="3192" viewBox="0 0 3192 3192">
			
			<g transform="scale(9.6) translate(10, 10)">
				<defs id="SvgjsDefs1206"><linearGradient id="SvgjsLinearGradient1215"><stop id="SvgjsStop1216" stop-color="#2d388a" offset="0"/><stop id="SvgjsStop1217" stop-color="#00aeef" offset="1"/></linearGradient></defs><g id="SvgjsG1207" featureKey="rootContainer" transform="matrix(6.25,0,0,6.25,0.31249597668647766,0)" fill="#fff"><path xmlns="http://www.w3.org/2000/svg" d="M24.95 0a25 25 0 1 0 25 25 25 25 0 0 0-25-25zm0 46.91a22 22 0 1 1 22-22 22 22 0 0 1-22 21.99z"/><path xmlns="http://www.w3.org/2000/svg" d="M24.95 3.65a21.3 21.3 0 1 0 21.3 21.3 21.33 21.33 0 0 0-21.3-21.3z"/></g><g id="SvgjsG1208" featureKey="symbolFeature-0" transform="matrix(0.3759710087662842,0,0,0.3759710087662842,115.9181762644672,66)" fill="#000000"><defs xmlns="http://www.w3.org/2000/svg"/><g xmlns="http://www.w3.org/2000/svg"><path class="fil0" d="M183 96c0,0 -1,0 -1,0l-63 -64 -63 64c0,0 0,0 0,0l0 55 32 0 6 0 8 0 0 -59 34 0 0 59 8 0 6 0 33 0 0 -55 0 0z" style="fill: url(#SvgjsLinearGradient1215);"/><path class="fil0" d="M38 77l73 -74c5,-4 12,-4 15,0l23 22 0 -12c0,-2 1,-3 3,-3l25 0c1,0 2,1 2,3l0 43 22 21c4,4 4,11 0,15l0 0c-5,4 -11,4 -15,0l-67 -67 -67 67c-4,4 -11,4 -14,0l0 0c-5,-4 -5,-11 0,-15l0 0zm88 -74l0 0z" style="fill: url(#SvgjsLinearGradient1215);"/><path class="fil1" d="M136 151c0,11 -51,19 -15,22 31,5 56,9 55,20 0,14 -60,26 -60,32l0 0c0,10 90,21 97,58l-145 0c-11,-36 -178,-47 57,-90 18,-4 -1,-8 -7,-9 -29,-2 -41,-10 -40,-14 0,-4 25,-15 24,-19l34 0z" style="fill: black; fill-rule: nonzero;"/></g></g><g id="SvgjsG1209" featureKey="nameFeature-0" transform="matrix(0.7970191561394288,0,0,0.7970191561394288,54.72476980623493,182.69081829335062)" fill="#000000"><path d="M1.6 40 l0 -28 l4.4 0 l0 24 l7.24 0 l0 4 l-11.64 0 z M17.665 12 l4.4 0 l0 21.6 c0 2 0.88 2.72 2.28 2.72 s2.28 -0.72 2.28 -2.72 l0 -21.6 l4.16 0 l0 21.32 c0 4.48 -2.24 7.04 -6.56 7.04 s-6.56 -2.56 -6.56 -7.04 l0 -21.32 z M45.09 29.560000000000002 l4.16 0 l0 3.72 c0 4.48 -2.24 7.04 -6.56 7.04 s-6.56 -2.56 -6.56 -7.04 l0 -14.56 c0 -4.48 2.24 -7.04 6.56 -7.04 s6.56 2.56 6.56 7.04 l0 2.72 l-4.16 0 l0 -3 c0 -2 -0.88 -2.76 -2.28 -2.76 s-2.28 0.76 -2.28 2.76 l0 15.12 c0 2 0.88 2.72 2.28 2.72 s2.28 -0.72 2.28 -2.72 l0 -4 z M64.395 12 l4.48 28 l-4.44 0 l-0.76 -5.08 l-5.4 0 l-0.76 5.08 l-4.04 0 l4.48 -28 l6.44 0 z M60.915 16.96 l-2.08 14.16 l4.24 0 l-2.08 -14.16 l-0.08 0 z M73.06 18.72 c0 -4.48 2.2 -7.04 6.48 -7.04 s6.48 2.56 6.48 7.04 l0 0.88 l-4.16 0 l0 -1.16 c0 -2 -0.8 -2.76 -2.2 -2.76 s-2.2 0.76 -2.2 2.76 c0 2.04 0.88 3.56 3.76 6.08 c3.68 3.24 4.84 5.56 4.84 8.76 c0 4.48 -2.24 7.04 -6.56 7.04 s-6.56 -2.56 -6.56 -7.04 l0 -1.72 l4.16 0 l0 2 c0 2 0.88 2.72 2.28 2.72 s2.28 -0.72 2.28 -2.72 c0 -2.04 -0.88 -3.56 -3.76 -6.08 c-3.68 -3.24 -4.84 -5.56 -4.84 -8.76 z M100.19 40 l0 -28 l4.4 0 l0 24 l7.24 0 l0 4 l-11.64 0 z M120.495 18.44 l0 15.12 c0 2 0.88 2.76 2.28 2.76 s2.28 -0.76 2.28 -2.76 l0 -15.12 c0 -2 -0.88 -2.76 -2.28 -2.76 s-2.28 0.76 -2.28 2.76 z M116.095 33.28 l0 -14.56 c0 -4.48 2.36 -7.04 6.68 -7.04 s6.68 2.56 6.68 7.04 l0 14.56 c0 4.48 -2.36 7.04 -6.68 7.04 s-6.68 -2.56 -6.68 -7.04 z M144.72000000000003 12 l4.48 28 l-4.44 0 l-0.76 -5.08 l-5.4 0 l-0.76 5.08 l-4.04 0 l4.48 -28 l6.44 0 z M141.24 16.96 l-2.08 14.16 l4.24 0 l-2.08 -14.16 l-0.08 0 z M163.34500000000003 40 l-5.4 -20.28 l-0.08 0 l0 20.28 l-3.96 0 l0 -28 l5.52 0 l4.44 16.76 l0.08 0 l0 -16.76 l3.92 0 l0 28 l-4.52 0 z M173.17000000000002 18.72 c0 -4.48 2.2 -7.04 6.48 -7.04 s6.48 2.56 6.48 7.04 l0 0.88 l-4.16 0 l0 -1.16 c0 -2 -0.8 -2.76 -2.2 -2.76 s-2.2 0.76 -2.2 2.76 c0 2.04 0.88 3.56 3.76 6.08 c3.68 3.24 4.84 5.56 4.84 8.76 c0 4.48 -2.24 7.04 -6.56 7.04 s-6.56 -2.56 -6.56 -7.04 l0 -1.72 l4.16 0 l0 2 c0 2 0.88 2.72 2.28 2.72 s2.28 -0.72 2.28 -2.72 c0 -2.04 -0.88 -3.56 -3.76 -6.08 c-3.68 -3.24 -4.84 -5.56 -4.84 -8.76 z M200.3 40 l0 -28 l4.4 0 l0 28 l-4.4 0 z M220.00500000000002 40 l-5.4 -20.28 l-0.08 0 l0 20.28 l-3.96 0 l0 -28 l5.52 0 l4.44 16.76 l0.08 0 l0 -16.76 l3.92 0 l0 28 l-4.52 0 z M238.99 29.560000000000002 l4.16 0 l0 3.72 c0 4.48 -2.24 7.04 -6.56 7.04 s-6.56 -2.56 -6.56 -7.04 l0 -14.56 c0 -4.48 2.24 -7.04 6.56 -7.04 s6.56 2.56 6.56 7.04 l0 2.72 l-4.16 0 l0 -3 c0 -2 -0.88 -2.76 -2.28 -2.76 s-2.28 0.76 -2.28 2.76 l0 15.12 c0 2 0.88 2.72 2.28 2.72 s2.28 -0.72 2.28 -2.72 l0 -4 z M248.29500000000002 35.76 l4.24 0 l0 4.24 l-4.24 0 l0 -4.24 z"/></g><g id="SvgjsG1210" featureKey="sloganFeature-0" transform="matrix(0.7132667869983303,0,0,0.7132667869983303,75.92867304921049,231.53355086903747)" fill="#000000"><path d="M4.8 13.14 l0 6.86 l-1.08 0 l0 -6.86 l-3.62 -8.14 l1.24 0 l2.9 6.94 l2.94 -6.94 l1.24 0 z M12.68 20.18 c-2.52 0 -3.78 -1.32 -3.78 -3.96 l0 -7.4 c0 -1.3333 0.31666 -2.3266 0.95 -2.98 s1.6567 -0.98 3.07 -0.98 c1.2933 0 2.25 0.33 2.87 0.99 s0.93 1.6367 0.93 2.93 l0 7.44 c0 0.66666 -0.07 1.2467 -0.21 1.74 s-0.37 0.90668 -0.69 1.24 s-0.73666 0.58 -1.25 0.74 s-1.1433 0.24 -1.89 0.24 z M15.66 8.76 c0 -0.33334 -0.04664 -0.67338 -0.13998 -1.02 s-0.24668 -0.66332 -0.46002 -0.94998 s-0.49668 -0.52 -0.85002 -0.7 s-0.79 -0.27 -1.31 -0.27 c-0.57334 0 -1.05 0.08 -1.43 0.24 s-0.68 0.38334 -0.9 0.67 s-0.37666 0.62332 -0.47 1.01 s-0.14 0.80666 -0.14 1.26 l0 7.1 c0 0.34666 0.04 0.7 0.12 1.06 s0.22334 0.69 0.43 0.99 s0.48666 0.54666 0.84 0.74 s0.79668 0.29 1.33 0.29 c0.57334 0 1.05 -0.07666 1.43 -0.23 s0.68334 -0.36334 0.91 -0.63 s0.39 -0.58332 0.49 -0.94998 s0.15 -0.76332 0.15 -1.19 l0 -7.42 z M22.360000000000003 20.18 c-1.2267 0 -2.1768 -0.33336 -2.85 -1 s-1.01 -1.6533 -1.01 -2.96 l0 -11.22 l1.08 0 l0 11.16 c0 0.32 0.04334 0.65666 0.13 1.01 s0.23666 0.67334 0.45 0.96 s0.49668 0.52332 0.85002 0.70998 s0.79 0.28 1.31 0.28 c0.57334 0 1.0467 -0.08334 1.42 -0.25 s0.67334 -0.39666 0.9 -0.69 s0.38666 -0.64 0.48 -1.04 s0.14 -0.82666 0.14 -1.28 l0 -10.86 l1.06 0 l0 11.22 c0 1.3333 -0.32334 2.3266 -0.97 2.98 s-1.6433 0.98 -2.99 0.98 z M35.52 20 l-3.3 -6.22 l-3.06 0 l0 6.22 l-0.98 0 l0 -15 l3.4 0 c0.78666 0 1.46 0.11666 2.02 0.35 s1.02 0.55 1.38 0.95 s0.62666 0.86334 0.8 1.39 s0.26 1.0767 0.26 1.65 c0 0.97334 -0.25 1.85 -0.75 2.63 s-1.1567 1.35 -1.97 1.71 l3.52 6.32 l-1.32 0 z M31.440000000000005 5.92 l-2.28 -0.000019531 l0 6.84 l2.42 0 c0.68 0 1.24 -0.10334 1.68 -0.31 s0.78334 -0.47332 1.03 -0.79998 s0.42 -0.7 0.52 -1.12 s0.15 -0.85 0.15 -1.29 c0 -0.46666 -0.08 -0.9 -0.24 -1.3 s-0.39 -0.75 -0.69 -1.05 s-0.66666 -0.53666 -1.1 -0.71 s-0.93 -0.26 -1.49 -0.26 z M44.64 14.36 l-2.16 0 l0 5.64 l-1.16 0 l0 -15 l3.62 0 c1.32 0 2.3566 0.40334 3.11 1.21 s1.13 1.9767 1.13 3.51 c0 0.68 -0.11 1.3033 -0.33 1.87 s-0.53 1.0567 -0.93 1.47 s-0.87666 0.73334 -1.43 0.96 s-1.17 0.34 -1.85 0.34 z M44.54 6.02 l-2.06 0.000019531 l0 7.24 l1.86 0 c0.68 0 1.2533 -0.09666 1.72 -0.29 s0.84332 -0.45334 1.13 -0.78 s0.49332 -0.70666 0.61998 -1.14 s0.19 -0.89 0.19 -1.37 c0 -0.49334 -0.04666 -0.96334 -0.14 -1.41 s-0.26668 -0.83666 -0.52002 -1.17 s-0.60668 -0.59668 -1.06 -0.79002 s-1.0333 -0.29 -1.74 -0.29 z M56.78 20 l-1.1 -4.42 l-4.88 0 l-1.1 4.42 l-1 0 l4.14 -15 l0.86 0 l4.12 15 l-1.04 0 z M53.3 5.9399999999999995 l-2.26 8.68 l4.38 0 z M61.24 6.1 l0 13.9 l-1.16 0 l0 -13.9 l-3.26 0 l0 -1.1 l7.68 0 l0 1.1 l-3.26 0 z M71.98 20 l-0.02 -6.98 l-5.48 0 l0.02 6.98 l-1.16 0 l0 -15 l1.16 0 l-0.02 6.96 l5.48 0 l0.02 -6.96 l1.18 0 l0 15 l-1.18 0 z M82.60000000000001 6.1 l0 13.9 l-1.16 0 l0 -13.9 l-3.26 0 l0 -1.1 l7.68 0 l0 1.1 l-3.26 0 z M90.30000000000001 20.18 c-2.52 0 -3.78 -1.32 -3.78 -3.96 l0 -7.4 c0 -1.3333 0.31666 -2.3266 0.95 -2.98 s1.6567 -0.98 3.07 -0.98 c1.2933 0 2.25 0.33 2.87 0.99 s0.93 1.6367 0.93 2.93 l0 7.44 c0 0.66666 -0.07 1.2467 -0.21 1.74 s-0.37 0.90668 -0.69 1.24 s-0.73666 0.58 -1.25 0.74 s-1.1433 0.24 -1.89 0.24 z M93.28000000000002 8.76 c0 -0.33334 -0.04664 -0.67338 -0.13998 -1.02 s-0.24668 -0.66332 -0.46002 -0.94998 s-0.49668 -0.52 -0.85002 -0.7 s-0.79 -0.27 -1.31 -0.27 c-0.57334 0 -1.05 0.08 -1.43 0.24 s-0.68 0.38334 -0.9 0.67 s-0.37666 0.62332 -0.47 1.01 s-0.14 0.80666 -0.14 1.26 l0 7.1 c0 0.34666 0.04 0.7 0.12 1.06 s0.22334 0.69 0.43 0.99 s0.48666 0.54666 0.84 0.74 s0.79668 0.29 1.33 0.29 c0.57334 0 1.05 -0.07666 1.43 -0.23 s0.68334 -0.36334 0.91 -0.63 s0.39 -0.58332 0.49 -0.94998 s0.15 -0.76332 0.15 -1.19 l0 -7.42 z M106.22000000000001 20 l-0.02 -6.98 l-5.48 0 l0.02 6.98 l-1.16 0 l0 -15 l1.16 0 l-0.02 6.96 l5.48 0 l0.02 -6.96 l1.18 0 l0 15 l-1.18 0 z M112.74000000000001 20.18 c-2.52 0 -3.78 -1.32 -3.78 -3.96 l0 -7.4 c0 -1.3333 0.31666 -2.3266 0.95 -2.98 s1.6567 -0.98 3.07 -0.98 c1.2933 0 2.25 0.33 2.87 0.99 s0.93 1.6367 0.93 2.93 l0 7.44 c0 0.66666 -0.07 1.2467 -0.21 1.74 s-0.37 0.90668 -0.69 1.24 s-0.73666 0.58 -1.25 0.74 s-1.1433 0.24 -1.89 0.24 z M115.72000000000001 8.76 c0 -0.33334 -0.04664 -0.67338 -0.13998 -1.02 s-0.24668 -0.66332 -0.46002 -0.94998 s-0.49668 -0.52 -0.85002 -0.7 s-0.79 -0.27 -1.31 -0.27 c-0.57334 0 -1.05 0.08 -1.43 0.24 s-0.68 0.38334 -0.9 0.67 s-0.37666 0.62332 -0.47 1.01 s-0.14 0.80666 -0.14 1.26 l0 7.1 c0 0.34666 0.04 0.7 0.12 1.06 s0.22334 0.69 0.43 0.99 s0.48666 0.54666 0.84 0.74 s0.79668 0.29 1.33 0.29 c0.57334 0 1.05 -0.07666 1.43 -0.23 s0.68334 -0.36334 0.91 -0.63 s0.39 -0.58332 0.49 -0.94998 s0.15 -0.76332 0.15 -1.19 l0 -7.42 z M127.52000000000001 20 l0 -12.72 l-3.62 8.66 l-1.12 -0.02 l-3.54 -8.66 l0 12.74 l-0.98 0 l0 -15 l1.04 0 l4.06 9.76 l4.08 -9.76 l1.06 0 l0 15 l-0.98 0 z M130.48000000000002 20 l0 -15 l7.36 0 l0 1.16 l-6.32 0 l0 5.7 l6.26 0 l0 0.92 l-6.26 0 l0 6.06 l6.46 0 l0 1.16 l-7.5 0 z M146.42000000000002 20.18 c-2.52 0 -3.78 -1.32 -3.78 -3.96 l0 -7.4 c0 -1.3333 0.31666 -2.3266 0.95 -2.98 s1.6567 -0.98 3.07 -0.98 c1.2933 0 2.25 0.33 2.87 0.99 s0.93 1.6367 0.93 2.93 l0 7.44 c0 0.66666 -0.07 1.2467 -0.21 1.74 s-0.37 0.90668 -0.69 1.24 s-0.73666 0.58 -1.25 0.74 s-1.1433 0.24 -1.89 0.24 z M149.4 8.76 c0 -0.33334 -0.04664 -0.67338 -0.13998 -1.02 s-0.24668 -0.66332 -0.46002 -0.94998 s-0.49668 -0.52 -0.85002 -0.7 s-0.79 -0.27 -1.31 -0.27 c-0.57334 0 -1.05 0.08 -1.43 0.24 s-0.68 0.38334 -0.9 0.67 s-0.37666 0.62332 -0.47 1.01 s-0.14 0.80666 -0.14 1.26 l0 7.1 c0 0.34666 0.04 0.7 0.12 1.06 s0.22334 0.69 0.43 0.99 s0.48666 0.54666 0.84 0.74 s0.79668 0.29 1.33 0.29 c0.57334 0 1.05 -0.07666 1.43 -0.23 s0.68334 -0.36334 0.91 -0.63 s0.39 -0.58332 0.49 -0.94998 s0.15 -0.76332 0.15 -1.19 l0 -7.42 z M162.10000000000002 20 l-0.98 0 l-2.74 -13.4 l-2.72 13.4 l-0.96 0 l-3.44 -15 l1.06 0 l2.74 13.08 l3.02 -13.08 l0.64 0 l3 13.08 l2.74 -13.08 l1.08 0 z M173.42000000000002 20 l-5.8 -12.88 l0 12.88 l-1.1 0 l0 -15 l1.18 0 l5.8 12.3 l0.14 -12.3 l1.08 0 l0 15 l-1.3 0 z M176.38000000000002 20 l0 -15 l7.36 0 l0 1.16 l-6.32 0 l0 5.7 l6.26 0 l0 0.92 l-6.26 0 l0 6.06 l6.46 0 l0 1.16 l-7.5 0 z M192.32000000000002 20 l-3.3 -6.22 l-3.06 0 l0 6.22 l-0.98 0 l0 -15 l3.4 0 c0.78666 0 1.46 0.11666 2.02 0.35 s1.02 0.55 1.38 0.95 s0.62666 0.86334 0.8 1.39 s0.26 1.0767 0.26 1.65 c0 0.97334 -0.25 1.85 -0.75 2.63 s-1.1567 1.35 -1.97 1.71 l3.52 6.32 l-1.32 0 z M188.24 5.92 l-2.28 -0.000019531 l0 6.84 l2.42 0 c0.68 0 1.24 -0.10334 1.68 -0.31 s0.78334 -0.47332 1.03 -0.79998 s0.42 -0.7 0.52 -1.12 s0.15 -0.85 0.15 -1.29 c0 -0.46666 -0.08 -0.9 -0.24 -1.3 s-0.39 -0.75 -0.69 -1.05 s-0.66666 -0.53666 -1.1 -0.71 s-0.93 -0.26 -1.49 -0.26 z M198.64000000000001 20.18 c-0.65334 0 -1.2335 -0.086738 -1.7401 -0.26008 s-0.93332 -0.45 -1.28 -0.83 s-0.60332 -0.87666 -0.76998 -1.49 s-0.23666 -1.3533 -0.21 -2.22 l1.2 0 c0 0.42666 0.02 0.87 0.06 1.33 s0.14666 0.88 0.32 1.26 s0.43668 0.69 0.79002 0.93 s0.84334 0.36 1.47 0.36 c0.53334 0 0.98668 -0.08 1.36 -0.24 s0.67668 -0.37334 0.91002 -0.64 s0.39668 -0.58 0.49002 -0.94 s0.14 -0.73334 0.14 -1.12 c0 -0.45334 -0.08334 -0.85 -0.25 -1.19 s-0.38666 -0.64334 -0.66 -0.91 s-0.59334 -0.50332 -0.96 -0.70998 s-0.75 -0.39 -1.15 -0.55 c-0.64 -0.25334 -1.2 -0.50334 -1.68 -0.75 s-0.87334 -0.52332 -1.18 -0.82998 s-0.53666 -0.66332 -0.69 -1.07 s-0.23 -0.90332 -0.23 -1.49 c0 -1.3333 0.35 -2.3266 1.05 -2.98 s1.7033 -0.98 3.01 -0.98 c1.1333 0 2.03 0.33 2.69 0.99 s0.99 1.65 0.99 2.97 l0 1.1 l-1.12 0 l0 -1.2 c0 -0.41334 -0.05 -0.79668 -0.15 -1.15 s-0.25666 -0.66334 -0.47 -0.93 s-0.48334 -0.47666 -0.81 -0.63 s-0.71666 -0.23 -1.17 -0.23 c-1.0667 0 -1.83 0.28 -2.29 0.84 s-0.67 1.3133 -0.63 2.26 c0.01334 0.41334 0.09 0.76668 0.23 1.06 s0.32666 0.55 0.56 0.77 s0.51334 0.41666 0.84 0.59 s0.69 0.34668 1.09 0.52002 c0.46666 0.2 0.93 0.41334 1.39 0.64 s0.89 0.50666 1.29 0.84 c0.4 0.34666 0.73 0.75 0.99 1.21 s0.39 1.03 0.39 1.71 c0 1.32 -0.33666 2.31 -1.01 2.97 s-1.61 0.99 -2.81 0.99 z M210.4 20 l-0.02 -6.98 l-5.48 0 l0.02 6.98 l-1.16 0 l0 -15 l1.16 0 l-0.02 6.96 l5.48 0 l0.02 -6.96 l1.18 0 l0 15 l-1.18 0 z M213.34000000000003 20 l0 -15 l1.28 0 l0 15 l-1.28 0 z M219.88000000000002 14.36 l-2.16 0 l0 5.64 l-1.16 0 l0 -15 l3.62 0 c1.32 0 2.3566 0.40334 3.11 1.21 s1.13 1.9767 1.13 3.51 c0 0.68 -0.11 1.3033 -0.33 1.87 s-0.53 1.0567 -0.93 1.47 s-0.87666 0.73334 -1.43 0.96 s-1.17 0.34 -1.85 0.34 z M219.78000000000003 6.02 l-2.06 0.000019531 l0 7.24 l1.86 0 c0.68 0 1.2533 -0.09666 1.72 -0.29 s0.84332 -0.45334 1.13 -0.78 s0.49332 -0.70666 0.61998 -1.14 s0.19 -0.89 0.19 -1.37 c0 -0.49334 -0.04666 -0.96334 -0.14 -1.41 s-0.26668 -0.83666 -0.52002 -1.17 s-0.60668 -0.59668 -1.06 -0.79002 s-1.0333 -0.29 -1.74 -0.29 z"/></g>
			</g>
		</svg>
	